<svg xmlns="http://www.w3.org/2000/svg" style="width:0; height:0; visibility:hidden;">
    <symbol id="arrow" viewBox="0 0 64 64">
       <g> <g> <polygon points="45.463,59.579 17.066,31.999 45.463,4.421 46.934,5.935 20.099,31.999 46.934,58.064 		"/> </g> </g> 
    </symbol>
    <symbol id="article" viewBox="0 0 32 32">
      <g class="transform-group"><g transform="scale(0.03125, 0.03125)"><path d="M255.735475 675.717735c51.436486 0 93.114724 41.73759 93.114724 93.15361 0 51.469232-41.677215 93.13212-93.114724 93.13212-51.458999 0-93.15054-41.662889-93.15054-93.13212C162.585959 717.456349 204.2775 675.717735 255.735475 675.717735zM162.691359 534.060435c87.305415 0 169.306011 34.148751 231.013421 96.072079 61.736063 62.059428 95.703689 144.648424 95.703689 232.592382l134.458341 0c0-255.374248-206.882837-463.158618-461.175451-463.158618L162.691359 534.060435zM162.862251 295.64851c311.042105 0 564.121078 254.479879 564.121078 567.174624l134.430712 0c0-386.895701-313.347614-701.647291-698.55179-701.647291L162.862251 295.64851z"/></g></g>
    </symbol>
    <symbol id="bbs" viewBox="0 0 32 32">
      <g class="transform-group"><g transform="scale(0.03125, 0.03125)"><path d="M876.107 478.441c-69.987-34.106-149.177-29.846-212.883 4.341 0.601-151.962-111.22-286.174-269.38-311.46-175.254-27.989-340.514 88.337-369.158 259.851-28.59 171.54 90.276 333.25 265.503 361.267 96.174 15.374 189.181-12.916 258.403-69.741 13.244 66.191 56.388 125.856 122.852 158.214 113.541 55.296 251.412 10.021 307.937-101.117 56.525-111.11 10.268-246.061-103.274-301.357zM475.19 309.849c26.678-8.055 54.969 6.554 63.187 32.631 8.22 26.106-6.69 53.766-33.369 61.85-26.678 8.083-54.941-6.526-63.161-32.631-8.246-26.078 6.69-53.766 33.342-61.85zM214.466 275.825c26.652-8.055 54.941 6.554 63.161 32.631 8.246 26.106-6.69 53.794-33.369 61.85-26.652 8.055-54.941-6.554-63.187-32.631-8.192-26.106 6.718-53.766 33.396-61.85zM299.117 739.191c-212.801-34.025-189.645-258.048-189.645-258.048s119.248-17.394 232.598 0.683c113.323 18.159 220.72 71.734 220.72 71.734s-38.775 221.594-263.674 185.631zM731.19 512.791c19.906 0 35.99 15.838 35.99 35.362 0 19.579-16.111 35.417-35.99 35.417s-36.045-15.838-36.045-35.417c0-19.524 16.165-35.362 36.045-35.362zM689.002 846.398c-137.926-67.147-73.81-215.204-73.81-215.204s85.169 12.698 158.624 48.469c73.427 35.744 135.14 94.509 135.14 94.509s-74.192 143.223-219.955 72.226zM901.557 660.33c-19.934 0-36.045-15.838-36.045-35.362s16.111-35.362 36.045-35.362c19.906 0 35.99 15.838 35.99 35.362s-16.111 35.362-35.99 35.362z"/></g></g>
    </symbol>
    <symbol id="browse" viewBox="0 0 32 32">
      <g class="transform-group"><g transform="scale(0.03125, 0.03125)"><path d="M512 385.316571c-90.404571 0-163.644952 73.240381-163.644952 163.644952 0 90.404571 73.191619 163.59619 163.644952 163.59619 90.35581 0 163.644952-73.240381 163.644952-163.59619C675.644952 458.556952 602.35581 385.316571 512 385.316571zM512 630.784c-45.153524 0-81.871238-36.717714-81.871238-81.822476 0-45.153524 36.717714-81.822476 81.871238-81.822476 45.056 0 81.773714 36.668952 81.773714 81.822476C593.773714 594.066286 557.056 630.784 512 630.784zM512 167.107048c-271.213714 0-463.676952 245.467429-490.934857 381.854476 27.306667 136.338286 219.769905 381.805714 490.934857 381.805714s463.676952-245.467429 490.886095-381.805714C975.676952 412.525714 783.213714 167.107048 512 167.107048zM512 848.944762c-214.113524 0-373.418667-189.293714-406.674286-299.983238 33.255619-110.738286 192.560762-300.032 406.674286-300.032 214.064762 0 373.321143 189.293714 406.625524 300.032C885.321143 659.651048 726.064762 848.944762 512 848.944762z"/></g></g>
    </symbol>
    <symbol id="loading" viewBox="0 0 1024 1024">
      <path class="path1" d="M1024 512c-1.278-66.862-15.784-133.516-42.576-194.462-26.704-61-65.462-116.258-113.042-161.92-47.552-45.696-103.944-81.82-164.984-105.652-61.004-23.924-126.596-35.352-191.398-33.966-64.81 1.282-129.332 15.374-188.334 41.356-59.048 25.896-112.542 63.47-156.734 109.576-44.224 46.082-79.16 100.708-102.186 159.798-23.114 59.062-34.128 122.52-32.746 185.27 1.286 62.76 14.964 125.148 40.134 182.206 25.088 57.1 61.476 108.828 106.11 151.548 44.61 42.754 97.472 76.504 154.614 98.72 57.118 22.304 118.446 32.902 179.142 31.526 60.708-1.29 120.962-14.554 176.076-38.914 55.15-24.282 105.116-59.48 146.366-102.644 41.282-43.14 73.844-94.236 95.254-149.43 13.034-33.458 21.88-68.4 26.542-103.798 1.246 0.072 2.498 0.12 3.762 0.12 35.346 0 64-28.652 64-64 0-1.796-0.094-3.572-0.238-5.332h0.238zM922.306 681.948c-23.472 53.202-57.484 101.4-99.178 141.18-41.67 39.81-91 71.186-144.244 91.79-53.228 20.678-110.29 30.452-166.884 29.082-56.604-1.298-112.596-13.736-163.82-36.474-51.25-22.666-97.684-55.49-135.994-95.712-38.338-40.198-68.528-87.764-88.322-139.058-19.87-51.284-29.228-106.214-27.864-160.756 1.302-54.552 13.328-108.412 35.254-157.69 21.858-49.3 53.498-93.97 92.246-130.81 38.73-36.868 84.53-65.87 133.874-84.856 49.338-19.060 102.136-28.006 154.626-26.644 52.5 1.306 104.228 12.918 151.562 34.034 47.352 21.050 90.256 51.502 125.624 88.782 35.396 37.258 63.21 81.294 81.39 128.688 18.248 47.392 26.782 98.058 25.424 148.496h0.238c-0.144 1.76-0.238 3.536-0.238 5.332 0 33.012 24.992 60.174 57.086 63.624-6.224 34.822-16.53 68.818-30.78 100.992z"/>
    </symbol>
    <symbol id="reply" viewBox="0 0 32 32">
      <g class="transform-group"><g transform="scale(0.03125, 0.03125)"><path d="M832 128 192 128c-52.9 0-96 43.1-96 96l0 512c0 52.9 43.1 96 96 96l210.4 0 87 87c6.2 6.2 14.4 9.4 22.6 9.4s16.4-3.1 22.6-9.4l87-87L832 832c52.9 0 96-43.1 96-96L928 224C928 171.1 884.9 128 832 128zM864 736c0 17.7-14.3 32-32 32L608.4 768c-8.5 0-16.6 3.4-22.6 9.4L512 851.1l-73.8-73.8c-6-6-14.1-9.4-22.6-9.4L192 767.9c-17.7 0-32-14.3-32-32L160 224c0-17.7 14.3-32 32-32l640 0c17.7 0 32 14.3 32 32L864 736zM336 432c-26.5 0-48 21.5-48 48s21.5 48 48 48 48-21.5 48-48S362.5 432 336 432zM528 432c-26.5 0-48 21.5-48 48s21.5 48 48 48 48-21.5 48-48S554.5 432 528 432zM720 432c-26.5 0-48 21.5-48 48s21.5 48 48 48 48-21.5 48-48S746.5 432 720 432z"/></g></g>
    </symbol>
    <symbol id="write" viewBox="0 0 32 32">
      <g class="transform-group"><g transform="scale(0.03125, 0.03125)"><path d="M242.538496 836.959232c1.62816 0.02048 3.278848 0.032768 4.972544 0.032768L242.538496 836.959232zM738.116608 836.958208l-5.074944 0.033792C734.7712 836.992 736.45568 836.978688 738.116608 836.958208zM855.906304 511.409152c-22.436864 0-40.623104 18.183168-40.623104 40.619008l0.236544 209.588224c-0.822272 58.725376-14.860288 74.56256-77.403136 75.342848l76.896256-0.512 0.50688-74.7776 0.203776 75.331584L165.888 837.32992l0-0.874496 76.770304 0.503808c-56.912896-0.694272-73.76896-13.828096-76.9792-60.309504l-0.3072-545.697792 0.90624 37.297152c0-59.831296 10.335232-78.271488 65.39264-80.894976l543.567872-0.311296c22.43584 0 40.62208-18.187264 40.62208-40.621056 0-22.433792-18.189312-40.620032-40.624128-40.620032l-617.531392 0.352256c-40.897536 3.785728-72.988672 37.871616-73.633792 79.599616l0.335872 659.006464C88.257536 886.049792 122.989568 918.528 165.285888 918.528L208.896 918.528l0 0.022528 563.2-0.287744L772.096 918.528l43.173888 0C860.13952 918.528 897.024 881.839104 897.024 836.967424L897.024 796.672l-0.216064 0-0.278528-244.482048C896.529408 529.754112 878.34112 511.409152 855.906304 511.409152zM164.864 187.392l25.407488-0.014336L164.864 187.543552 164.864 187.392zM961.488896 201.111552c-22.079488-22.075392-57.878528-22.075392-79.956992 0L424.471552 660.14208c-22.078464 22.076416-22.078464 57.873408 0 79.949824 22.079488 22.07744 57.877504 22.07744 79.954944 0l457.061376-459.029504C983.566336 258.985984 983.566336 223.192064 961.488896 201.111552z"/></g></g>
    </symbol></svg>